<!-- assets/logo/neural_logo.svg -->
<svg width="100" height="100" viewBox="0 0 100 100" fill="none" xmlns="http://www.w3.org/2000/svg">
  <!-- Определяем градиенты -->
  <defs>
    <linearGradient id="gradient1" x1="0%" y1="0%" x2="100%" y2="100%">
      <stop offset="0%" stop-color="#FF7BA9" />
      <stop offset="100%" stop-color="#8E5BFF" />
    </linearGradient>
    <linearGradient id="gradient2" x1="100%" y1="0%" x2="0%" y2="100%">
      <stop offset="0%" stop-color="#8E5BFF" />
      <stop offset="100%" stop-color="#FF7BA9" />
    </linearGradient>
    <linearGradient id="gradientHeart" x1="0%" y1="0%" x2="100%" y2="100%">
      <stop offset="0%" stop-color="#FF7BA9" />
      <stop offset="50%" stop-color="#8E5BFF" />
      <stop offset="100%" stop-color="#FF7BA9" />
    </linearGradient>
  </defs>

  <!-- Ноды -->
  <circle cx="50" cy="30" r="3" fill="#FF7BA9" />
  <circle cx="35" cy="45" r="3" fill="#8E5BFF" />
  <circle cx="65" cy="45" r="3" fill="#FF7BA9" />
  <circle cx="25" cy="60" r="3" fill="#8E5BFF" />
  <circle cx="50" cy="65" r="3" fill="#FF7BA9" />
  <circle cx="75" cy="60" r="3" fill="#8E5BFF" />
  
  <!-- Связи -->
  <path
    d="M50 30 L35 45 L25 60 L50 85"
    stroke="url(#gradient1)"
    stroke-width="1.5"
    fill="none"
    opacity="0.6"
  />
  <path
    d="M50 30 L65 45 L75 60 L50 85"
    stroke="url(#gradient2)"
    stroke-width="1.5"
    fill="none"
    opacity="0.6"
  />
  <path
    d="M35 45 L50 65"
    stroke="url(#gradient1)"
    stroke-width="1.5"
    fill="none"
    opacity="0.4"
  />
  <path
    d="M65 45 L50 65"
    stroke="url(#gradient2)"
    stroke-width="1.5"
    fill="none"
    opacity="0.4"
  />
  
  <!-- Контур сердца -->
  <path
    d="M50 85 C50 85, 20 60, 20 42 C20 30, 28 25, 35 25 C42 25, 50 35, 50 35 C50 35, 58 25, 65 25 C72 25, 80 30, 80 42 C80 60, 50 85, 50 85 Z"
    stroke="url(#gradientHeart)"
    stroke-width="2"
    fill="none"
  />
</svg>
